<?xml version="1.0" standalone="no"?>
<!DOCTYPE svg PUBLIC "-//W3C//DTD SVG 20010904//EN"
 "http://www.w3.org/TR/2001/REC-SVG-20010904/DTD/svg10.dtd">
<svg version="1.0" xmlns="http://www.w3.org/2000/svg"
 width="300.000000pt" height="300.000000pt" viewBox="0 0 300.000000 300.000000"
 preserveAspectRatio="xMidYMid meet">
<metadata>
Created by potrace 1.11, written by Peter Selinger 2001-2013
</metadata>
<g transform="translate(0.000000,300.000000) scale(0.100000,-0.100000)"
fill="#000000" stroke="none">
<path d="M1328 2799 c-52 -14 -76 -48 -103 -149 -14 -52 -25 -106 -25 -120 0
-15 -4 -30 -8 -35 -16 -18 -41 -93 -48 -142 -7 -57 -7 -52 -34 -173 -12 -52
-23 -104 -26 -115 -2 -11 -7 -49 -10 -85 -4 -36 -9 -85 -13 -110 -12 -77 13
-139 56 -140 19 0 90 67 124 117 43 61 44 67 39 223 -3 77 13 135 60 221 11
20 21 58 23 85 2 34 17 79 51 149 59 120 63 173 21 236 -14 22 -29 40 -33 40
-29 5 -51 5 -74 -2z"/>
<path d="M2034 2669 c-34 -10 -62 -38 -90 -89 -10 -19 -33 -59 -52 -88 -18
-28 -42 -74 -53 -100 -11 -26 -32 -56 -48 -66 -33 -23 -58 -76 -67 -146 -6
-44 -14 -61 -54 -103 -61 -65 -115 -173 -135 -271 -17 -87 -14 -113 18 -125
38 -14 63 8 97 82 18 39 54 96 81 127 26 31 59 80 73 110 18 39 43 70 85 105
54 46 84 84 86 110 0 6 13 28 29 50 121 175 168 305 134 368 -23 40 -52 51
-104 36z"/>
<path d="M715 2495 c-14 -13 -26 -32 -27 -42 0 -10 -2 -22 -3 -28 -27 -151
-31 -268 -17 -495 9 -147 24 -195 66 -206 23 -6 65 9 67 24 0 4 2 16 4 27 1
11 6 43 10 70 4 28 11 70 15 95 5 25 7 107 5 184 -3 90 -1 146 7 159 14 27 13
126 -2 172 -21 65 -81 84 -125 40z"/>
<path d="M2456 2145 c-52 -31 -151 -129 -166 -165 -6 -15 -34 -42 -61 -59 -27
-18 -66 -53 -86 -78 -62 -75 -117 -127 -198 -187 -22 -17 -44 -37 -50 -45 -13
-21 -45 -130 -45 -155 0 -22 27 -45 52 -46 50 -1 258 180 258 225 0 14 5 26
10 26 46 6 67 21 130 90 36 39 79 78 97 88 30 15 93 66 175 141 32 29 39 43
42 80 3 40 0 48 -31 77 -41 39 -71 41 -127 8z"/>
<path d="M705 1651 c-31 -13 -51 -40 -90 -119 -40 -80 -51 -145 -30 -179 12
-17 12 -22 1 -26 -7 -3 -28 -43 -46 -89 -18 -45 -47 -105 -65 -133 -77 -120
-89 -155 -86 -236 2 -39 -2 -49 -23 -62 -31 -21 -45 -67 -41 -141 4 -75 32
-114 109 -156 34 -18 79 -45 101 -60 22 -15 103 -57 180 -94 77 -37 151 -78
165 -89 28 -24 44 -34 131 -78 86 -44 203 -44 367 1 20 5 55 12 77 15 22 4 57
11 78 16 21 6 48 7 60 3 49 -16 186 4 390 55 40 11 87 16 115 13 85 -9 134 -7
352 13 122 12 131 16 148 63 25 71 -20 167 -97 206 -56 29 -114 30 -193 1 -40
-14 -85 -34 -99 -45 -31 -22 -94 -50 -128 -56 -13 -3 -32 -9 -43 -15 -10 -5
-18 -8 -18 -5 0 2 -21 -1 -47 -8 -55 -13 -105 -13 -216 3 -129 18 -171 47
-181 126 -3 22 -8 51 -10 65 -7 34 -80 98 -121 106 -46 8 -139 -1 -214 -22
-54 -15 -68 -15 -95 -5 -17 8 -53 21 -80 30 -27 10 -58 28 -68 42 -11 13 -38
44 -61 68 l-41 44 -2 91 c-1 50 -4 111 -8 135 -6 41 -4 46 26 72 18 16 42 28
53 29 11 0 37 11 56 24 23 16 55 26 89 29 46 4 61 0 116 -31 35 -19 87 -55
116 -79 63 -52 180 -113 217 -113 63 0 100 13 139 50 86 82 112 162 77 247
-21 54 -47 70 -121 76 -77 7 -99 17 -159 71 -62 57 -106 78 -170 84 -27 2 -58
12 -68 20 -13 12 -44 16 -125 18 -59 1 -120 7 -137 14 -37 14 -253 23 -280 11z"/>
</g>
</svg>
