<svg id="Layer_1" data-name="Layer 1" xmlns="http://www.w3.org/2000/svg" viewBox="0 0 553.34 371.97"><defs><style>.cls-1{fill:#010201;}</style></defs><polygon class="cls-1" points="405.59 113.47 400.88 113.47 392.77 101.97 400.42 91.14 405.03 91.14 406.79 91.14 406.79 88.98 405.03 88.98 395.96 88.98 393.36 88.98 393.36 91.14 395.96 91.14 397.38 91.14 391.22 99.78 385.12 91.14 389.1 91.14 389.1 88.98 375.67 88.98 375.67 91.14 381.94 91.14 389.66 101.98 381.48 113.47 375.11 113.47 375.11 115.63 383.13 115.63 383.14 115.63 383.14 115.63 388.54 115.63 388.54 113.47 384.66 113.47 391.22 104.17 397.84 113.47 396.53 113.47 393.92 113.47 393.92 115.63 396.53 115.63 399.37 115.63 399.38 115.63 402.4 115.63 402.4 115.63 405.59 115.63 407.35 115.63 407.35 113.47 405.59 113.47"/><path class="cls-1" d="M134.81,65.14c-1.84,2.16-4.25,2.33-7.49,2.33-5.92,0-9.49-5-9.49-11.29S121.32,45,127.24,44.9a10.07,10.07,0,0,1,6.24,1.85h0v5.1h2.7V46.12h0c-1.79-2.26-4.76-3.48-8.86-3.48-7.33,0-12.21,6.06-12.21,13.54s4.72,13.55,12,13.55c4.37,0,7.49-.67,9.44-3.09Z"/><path class="cls-1" d="M61.68,87.74a14.3,14.3,0,1,0,14,14.3A14.16,14.16,0,0,0,61.68,87.74Zm0,26.21c-6.25,0-11.15-5.23-11.15-11.91S55.35,90.13,61.6,90.13,72.83,95.36,72.83,102,67.94,114,61.69,114Z"/><path class="cls-1" d="M71.32,66.47,63.71,43.35H59.19L51.58,66.47h-4.4v2h6.39v0h5.27v-2h-4.6l2.39-7.27h9.61l2.4,7.26H64.06v2.06H75.69v-2Zm-14-9.32,3.86-11.74h.53l3.87,11.74Z"/><path class="cls-1" d="M160.65,43.36H147.56v2.11h5.63V66.41h-5.63v2.11h13.27c7.86,0,13.27-5.64,13.27-12.58S169,43.12,160.65,43.36Zm.15,23h-5.06V45.46h4.91a10.41,10.41,0,0,1,10.74,10.48A10.16,10.16,0,0,1,160.8,66.41Z"/><path class="cls-1" d="M97,89H85.65v2.17h5.44v22.22h-5.4v2.16H99.1v-2.16H93.79v-9.85h3.94a11.51,11.51,0,0,0,4.69-.9c2.91-1.28,4.13-3.51,4.13-6.67C106.55,91.67,102.42,89,97,89Zm.66,12.37H93.79V91.11H97c4,0,6.88,1.93,6.88,4.84C103.84,99.06,101.39,101.25,97.62,101.34Z"/><path class="cls-1" d="M99.31,55a5.42,5.42,0,0,0,4-5.05c0-4-3.91-6.61-9.09-6.61H83.51v2h5.15v21H83.55v2.05h7.68l3.42-.05c5.64,0,9.73-1.57,9.73-7.21C104.38,58.35,102.09,55.94,99.31,55Zm-5.09-9.63h0c3.75,0,6.52,1.83,6.52,4.58,0,3-2.32,4-5.89,4H91.23V45.39Zm.43,21H91.23V56.07h3.33c4.16,0,7.25,1.9,7.25,5.18S99,66.43,94.65,66.43Z"/><path class="cls-1" d="M143.74,102a14,14,0,1,0-14,14.31,13.68,13.68,0,0,0,5.24-1l2.46,4,2.25-1.41L137.32,114A14.35,14.35,0,0,0,143.74,102Zm-14,11.92c-6.25,0-11.14-5.23-11.14-11.92s4.8-11.91,11-11.91,11.23,5.23,11.23,11.91a12.05,12.05,0,0,1-4.87,9.91l-2.61-4.2-2.24,1.42,2.51,4A10.9,10.9,0,0,1,129.73,113.94Z"/><polygon class="cls-1" points="227.3 43.35 225.35 43.35 224.87 43.35 224.75 43.35 219.66 43.35 219.66 45.4 224.75 45.4 224.75 66.47 219.66 66.47 219.66 68.52 224.75 68.52 227.3 68.52 232.4 68.52 232.4 66.47 227.3 66.47 227.3 56.06 235.09 56.06 235.09 54.01 227.3 54.01 227.3 45.4 237.35 45.4 237.35 49.96 239.4 49.96 239.4 45.4 239.4 43.35 227.3 43.35"/><polygon class="cls-1" points="203.35 61.9 203.35 66.47 192.23 66.47 192.23 56.06 200.02 56.06 200.02 54.01 192.23 54.01 192.23 45.4 202.28 45.4 202.28 49.96 204.33 49.96 204.33 45.4 204.33 43.35 192.23 43.35 190.28 43.35 189.79 43.35 189.68 43.35 184.59 43.35 184.59 45.4 189.68 45.4 189.68 66.47 184.59 66.47 184.59 68.52 189.68 68.52 190.96 68.52 192.23 68.52 205.4 68.52 205.4 66.47 205.4 61.9 203.35 61.9"/><polygon class="cls-1" points="317.42 45.2 317.42 43.35 311.56 43.35 311.5 43.35 308.88 43.35 304.08 43.35 304.08 45.2 308.88 45.2 308.88 54.57 295.45 54.57 295.45 45.2 300.25 45.2 300.25 43.35 295.45 43.35 292.76 43.35 286.84 43.35 286.84 45.2 292.76 45.2 292.76 67.97 286.84 67.97 286.84 69.82 292.76 69.82 295.45 69.82 300.25 69.82 300.25 67.97 295.45 67.97 295.45 56.72 308.88 56.72 308.88 67.97 304.08 67.97 304.08 69.82 308.88 69.82 311.5 69.82 311.56 69.82 317.42 69.82 317.42 67.97 311.56 67.97 311.56 45.2 317.42 45.2"/><polygon class="cls-1" points="339.19 67.63 339.19 45.48 344.3 45.48 344.3 43.32 339.19 43.32 336.63 43.32 336.51 43.32 330.9 43.32 330.9 45.48 336.51 45.48 336.51 67.63 330.9 67.63 330.9 69.79 336.51 69.79 339.19 69.79 344.3 69.79 344.3 67.63 339.19 67.63"/><polygon class="cls-1" points="404.37 67.6 392.58 54.28 402.59 45.43 408.64 45.43 408.64 43.27 395.24 43.27 395.24 45.43 399.34 45.43 387 56.33 387 45.45 391.69 45.45 391.69 43.29 387 43.29 384.32 43.29 378.29 43.29 378.29 45.45 384.32 45.45 384.32 67.6 378.29 67.6 378.29 69.76 384.32 69.76 387 69.76 391.69 69.76 391.69 67.6 387 67.6 387 59.17 387.02 59.19 390.59 56.05 400.82 67.6 396.54 67.6 396.54 69.76 409.94 69.76 409.94 67.6 404.37 67.6"/><polygon class="cls-1" points="439.52 62.82 439.52 67.6 428.95 67.6 428.95 45.45 434.31 45.45 434.31 43.29 428.95 43.29 426.39 43.29 426.27 43.29 420.91 43.29 420.91 45.45 426.27 45.45 426.27 67.6 420.91 67.6 420.91 69.75 426.27 69.76 427.61 69.76 428.95 69.76 441.67 69.76 441.67 67.6 441.67 62.82 439.52 62.82"/><polygon class="cls-1" points="484.25 67.6 484.25 45.31 488.55 45.31 488.55 43.16 484.78 43.16 481.57 43.16 481.56 43.16 471.38 57.18 461.25 43.23 461.24 43.23 461.21 43.23 458.53 43.23 458.03 43.23 454.2 43.23 454.2 45.38 458.53 45.38 458.53 67.53 453.17 67.53 453.17 69.69 458.53 69.69 458.53 69.69 461.21 69.69 461.21 69.69 466.57 69.69 466.57 67.53 461.21 67.53 461.21 47.63 469.68 59.36 473.12 59.3 481.57 47.6 481.57 67.6 476.21 67.6 476.21 69.76 481.57 69.76 484.25 69.76 489.61 69.76 489.61 67.6 484.25 67.6"/><polygon class="cls-1" points="231.49 88.97 228.79 88.97 219.91 88.97 219.91 91.13 219.91 95.94 222.07 95.94 222.07 91.13 228.79 91.13 228.79 113.36 223.41 113.36 223.41 115.53 228.79 115.53 231.49 115.53 236.86 115.53 236.86 113.36 231.49 113.36 231.49 91.13 238.2 91.13 238.2 95.94 240.37 95.94 240.37 91.13 240.37 88.97 231.49 88.97"/><polygon class="cls-1" points="321.14 89.01 316.21 89.01 316.19 89.01 313.4 89.01 307.71 89.01 307.71 91.17 312.55 91.17 303.91 113.14 295.28 91.17 300.1 91.17 300.1 89.01 294.44 89.01 294.44 89.03 294.43 89.01 291.62 89.01 291.62 89.01 286.67 89.01 286.67 91.17 292.46 91.17 302.04 115.53 302.97 115.53 304.85 115.53 305.79 115.53 315.36 91.17 321.14 91.17 321.14 89.01"/><polygon class="cls-1" points="432.52 104.17 440.86 91.17 444.82 91.17 444.82 89.01 434.07 89.01 434.07 91.17 437.83 91.17 431.03 101.7 424.27 91.17 428.34 91.17 428.34 89.01 417.59 89.01 417.59 91.17 421.14 91.17 429.49 104.09 429.49 104.09 429.69 104.4 429.69 113.44 424.32 113.44 424.32 115.6 429.69 115.6 432.38 115.6 437.75 115.6 437.75 113.44 432.38 113.44 432.38 104.39 432.52 104.17"/><polygon class="cls-1" points="475.98 91.07 475.98 88.91 475.85 88.91 474.34 88.91 463.42 88.91 457.14 88.91 457.14 91.07 457.14 95.87 459.3 95.87 459.3 91.07 463.42 91.07 472.82 91.07 457.14 113.4 457.14 115.4 457.14 115.56 457.14 115.56 457.14 115.56 458.87 115.56 458.87 115.56 475.98 115.56 475.98 113.4 475.98 108.6 473.82 108.6 473.82 113.4 460.38 113.4 475.98 91.07"/><path class="cls-1" d="M197.77,99.8c-3-1.07-4.57-3-4.18-5.45.45-2.8,2.52-4.31,5.53-4.32a5.72,5.72,0,0,1,4.72,2.08v4.31H207V94.87l0-3.2c-1.21-2.65-4-3.94-8-4-4.31,0-8,2.51-8.26,6.94-.21,4.24,1.8,6.25,7,7.89,3.74,1.18,7,3.29,7.05,6.1.09,3.17-3,5.08-6.84,5.11a8.19,8.19,0,0,1-5-1.57v-5H189.9v5.82h0a10.87,10.87,0,0,0,8.09,3.3c6.27,0,9.82-3.11,9.82-7.76C207.81,104.35,203.09,101.67,197.77,99.8Z"/><path class="cls-1" d="M179.62,115.51v-2.16h-4.46l-5.06-10.42c.26-.09.53-.19.82-.32,2.91-1.27,4.13-3.51,4.13-6.66,0-4.28-4.12-7-9.58-7H154.16v2.17h5.44v22.21h-5.4v2.16h11.15v-2.16h-3v-9.84h3.93l1-.06,5.92,12.07m-7.06-14.18h-3.82V91.11h3.16c3.95,0,6.88,1.93,6.88,4.84C172.35,99.06,169.9,101.24,166.13,101.34Z"/><path class="cls-1" d="M279.4,89H266.79v2.17H272v11.61c0,5.4-2.93,11-8.71,11-6.18,0-8.71-5.18-8.71-11V91.14h5.18V89h-12.6v2.17h4.73v11.61c0,7.29,3.73,13.65,11.4,13.65,7.25,0,11.4-6.77,11.4-13.65V91.14h4.74Z"/><path class="cls-1" d="M273.43,46.24c-2-2.83-5.06-4.28-9.32-4.28a13.91,13.91,0,0,0-13.76,13.93h0c0,.15,0,.3,0,.45A13.91,13.91,0,0,0,264.11,70.4c4.26,0,7.34-1.27,9.2-3.61h0V57.27h-8v2.12h5.2v6.74A10.44,10.44,0,0,1,264,68.05c-6.14-.06-10.86-5.14-10.86-11.7V56c0-6.56,4.72-11.63,10.86-11.69a9.34,9.34,0,0,1,6.59,2.58h0v4.88h2.81V46.24Z"/><polygon class="cls-1" points="262.08 195.07 259.39 195.07 261.06 195.07 256.59 195.07 253.14 195.07 253.14 197.05 255.72 197.05 250.46 211.22 245.2 197.05 247.77 197.05 247.77 195.07 242.67 195.07 242.67 195.09 244.35 195.07 239.84 195.07 241.53 195.07 238.83 195.07 238.83 197.05 242.38 197.05 248.59 213.61 249.52 213.61 251.4 213.61 252.34 213.61 258.54 197.05 262.08 197.05 262.08 195.07"/><polygon class="cls-1" points="301.37 195.07 299.69 195.07 296.89 195.07 293.45 195.07 293.45 197.05 296.03 197.05 290.78 211.19 287.17 199.11 284.36 199.11 280.75 211.19 275.5 197.05 278.06 197.05 278.06 195.07 274.65 195.07 272.97 195.07 270.15 195.07 271.83 195.07 269.14 195.07 269.14 197.05 272.68 197.05 278.88 213.58 279.81 213.58 281.69 213.58 282.63 213.58 285.76 202.85 288.9 213.58 289.84 213.58 291.72 213.58 292.65 213.58 298.85 197.05 302.38 197.05 302.38 195.07 301.37 195.07"/><polygon class="cls-1" points="332.52 211.61 327.76 211.63 322.51 204.24 327.73 197.05 330.86 197.05 332.12 197.05 332.12 195.07 330.85 195.07 324.32 195.07 322.45 195.07 322.45 197.05 324.63 197.05 324.63 197.05 320.93 202.11 317.17 197.05 319.38 197.05 319.38 195.07 309.71 195.07 309.71 197.05 313.98 197.05 319.27 204.14 313.88 211.61 309.3 211.61 309.3 213.58 315.08 213.58 315.08 213.58 315.08 213.58 318.98 213.58 318.98 211.61 317.07 211.61 320.86 206.27 324.81 211.61 324.81 211.61 322.85 211.61 322.85 213.58 324.73 213.58 326.78 213.58 326.78 213.58 328.96 213.58 328.96 213.58 331.25 213.58 332.52 213.58 332.52 211.61 332.52 211.61"/><polygon class="cls-1" points="383.95 197.22 383.95 195.07 383.82 195.07 382.32 195.07 371.45 195.07 367.44 195.07 367.44 197.22 367.44 200.43 369.59 200.43 369.59 197.22 371.45 197.22 380.37 197.22 367.44 211.46 367.44 213.51 367.44 213.61 367.44 213.61 367.44 213.61 369.17 213.61 369.17 213.61 383.95 213.61 383.95 211.64 383.95 211.46 383.95 208.44 381.8 208.44 381.8 211.46 371.11 211.46 383.95 197.22"/><path class="cls-1" d="M168.18,202.58c-2.46-.74-3.28-1.59-3-3.32.26-1.36,2.42-2.26,3.9-2.23,1.87,0,3.76.87,4.38,2.37v2.13h2v-1.08l0-2.23a7.32,7.32,0,0,0-6.43-3.87c-3.47,0-6.5,2.3-6.67,5.39s1.35,4.26,5.53,5.53c2.26.69,5.33,2.27,5.38,3.59.08,2.21-1.72,2.85-4.8,2.75a6.64,6.64,0,0,1-5-2.61v-2.18h-2v3.85h0a8.65,8.65,0,0,0,7.05,3.63c5.06,0,7.41-2.17,7.41-5.41C176,205.93,172.47,203.89,168.18,202.58Z"/><path class="cls-1" d="M86.33,194.31a7,7,0,0,0-5.77,3.11l0,0v-2.31H73.12v2H78v25H73.66v1.81H84.79V222H80.42V210.87a6.54,6.54,0,0,0,6,3.57c5.33,0,8.75-4.24,8.75-9.89S92.89,194.31,86.33,194.31Zm.2,17.72c-2.39,0-5.74-1.37-5.94-8.29,0-2.6,1-7,5.43-7.1,5.44-.14,6.63,4.57,6.63,7.91C92.65,208.67,90.52,212,86.53,212Z"/><path class="cls-1" d="M176.53,164.21a6.62,6.62,0,0,1-4.66,2.08c-3.78,0-6.85-3.31-6.93-7.66h13.2v-2.17a7.94,7.94,0,0,0-7.53-7.85c-5.67,0-8.38,4.7-8.38,9.79,0,6,3.64,10.26,9.31,10.26,3.37,0,5.27-1.12,6.77-2.93Zm-5.74-13.15c1.57,0,4.74.95,4.81,5.4H165.12C165.67,153.43,167.5,151.06,170.79,151.06Z"/><path class="cls-1" d="M146.61,165.92v-1c0-1.28,0-5.49,0-5.49v0h0V139.12h-6.84v1.82h4.37V152.1a6.54,6.54,0,0,0-6-3.57c-5.32,0-8.75,4.24-8.75,9.89s2.26,10.24,8.82,10.24a7.14,7.14,0,0,0,6.05-3.5l-.31.44v2.31h7.47v-2Zm-8.07.41c-5.44.14-6.63-4.57-6.63-7.91,0-4.12,2.13-7.48,6.12-7.48,2.4,0,5.74,1.37,5.94,8.28C144,161.82,142.93,166.21,138.54,166.33Z"/><path class="cls-1" d="M84.67,148.37a6.6,6.6,0,0,0-6,3.59V138.89H71.71v1.83h4.45v24.55c0,.39,0,.63,0,.63s2.12,3,8.06,2.74c6.62-.29,9.29-4.6,9.29-10.3S90,148.37,84.67,148.37Zm-.91,17.95c-4,0-4.81-1.86-4.94-2.13v-5c.2-7,3.57-8.35,6-8.35,4,0,6.17,3.39,6.17,7.54C91,161.7,89.69,166.32,83.76,166.32Z"/><path class="cls-1" d="M57,194.31c-5.33,0-9.65,4.58-9.65,10.24a9.65,9.65,0,1,0,19.29,0C66.62,198.89,62.31,194.31,57,194.31ZM57,212A7.13,7.13,0,0,1,50,204.55c0-4.25,3.15-7.89,6.95-7.89,4,0,7,3.61,7,7.89A7.13,7.13,0,0,1,57,212Z"/><path class="cls-1" d="M228.16,195.07h-6.55v2h4.08v7.59c0,4.25-3,7.36-6.76,7.32-3.4,0-4.17-2.38-4.17-6.67v-8.24h0v-2h-7.21v2h4.51v8.32h0c0,6.19,1.56,9,6.87,9a8.76,8.76,0,0,0,6.76-3v2.15h6.88V211.7h-4.41V197.06"/><path class="cls-1" d="M149.48,196.64c-4.24-.61-6.76,3.07-6.76,7.32v7.59h3.55v2H135.63v-2h4.62V196.91h-4.41V195.1h6.88v2.15c1.62-1.86,3.35-3,5.69-3a3.37,3.37,0,0,1,3.16,1.36v4.84h-2.09v-3.84"/><path class="cls-1" d="M418,165.77v-8.32h0c0-6.19-1.47-8.95-6.49-8.95a9,9,0,0,0-7,3.75c-.83-2.55-2.58-3.75-5.88-3.75a8.11,8.11,0,0,0-6.39,3v-2.15h-6.5v1.81H390v14.64H385.6v2h10v-2l-3.17.07v-7.58c0-4.25,2.63-7.44,6.21-7.4,3.22,0,3.95,2.38,3.95,6.67v8.24H399.4v2h9.1v-2h-3.31v-7.6c0-4.25,2.76-7.35,6.35-7.31,3.22,0,3.95,2.38,3.95,6.67v8.24h-3.25v2h10.05v-2Z"/><path class="cls-1" d="M197.14,195.11h-4.57v-6.43H190v6.42h-4.57v2H190v10.27c-.07,7.19,2.37,7.19,6.29,7.1l-1.1-2.68h0c-2,0-2.55-1.18-2.61-2.64v-12h4.57Z"/><path class="cls-1" d="M116.75,164.18a7.07,7.07,0,0,1-4.88,2.09,7.47,7.47,0,0,1-7.24-7.93c.08-4.46,2.54-7.37,6.68-7.38a6.15,6.15,0,0,1,4.74,1.95v3.84h2.19v-5.43h0c-1.45-1.7-3.81-2.82-7.12-2.82-5.92,0-9.32,4.22-9.32,9.84,0,6,3.81,10.32,9.73,10.32,3.52,0,5.51-1.12,7.08-2.94Z"/><path class="cls-1" d="M266.12,165.83v-8.37h0c0-6.22-1.56-9-6.9-9a8.81,8.81,0,0,0-6.8,3V138.89H245.5v1.82h4.44v25.12h-4.65v2H256v-2h-3.56V158.2c0-4.27,3-7.4,6.8-7.37,3.42,0,4.19,2.41,4.19,6.71v8.29H260v2h10.7v-2Z"/><polygon class="cls-1" points="343.94 165.88 338.42 156.23 343.4 151.35 347.01 151.35 347.01 149.38 336.51 149.38 336.51 151.35 340.41 151.34 331.84 159.74 331.83 140.91 331.83 140.91 331.83 138.93 324.6 138.93 324.61 140.75 329.22 140.75 329.22 165.87 324.43 165.89 324.43 167.87 334.69 167.86 334.69 165.88 331.83 165.88 331.84 162.66 336.51 158.09 340.99 165.88 338.38 165.88 338.38 167.86 349.69 167.86 349.69 165.88 343.94 165.88"/><polygon class="cls-1" points="369.54 165.83 369.54 138.89 366.95 138.89 362.34 138.89 362.34 140.71 366.95 140.71 366.95 165.83 362.13 165.83 362.13 167.83 366.95 167.83 369.54 167.83 374.37 167.83 374.37 165.83 369.54 165.83"/><polygon class="cls-1" points="358.86 195.07 356.13 195.07 352.78 195.07 352.78 197 355.29 197 350.17 210.77 345.06 197 347.56 197 347.56 195.07 344.23 195.07 342.6 195.07 339.85 195.07 341.49 195.07 338.87 195.07 338.87 197 342.32 197 348.84 214.41 346.01 222.05 341.37 222.05 341.37 223.82 348 223.78 348.69 222.05 348.69 222.05 352.42 211.98 358.03 197 361.47 197 361.47 195.07 360.48 195.07 358.86 195.07"/><path class="cls-1" d="M452.29,165.83v-8.35h0c0-6.21-1.62-9-7.16-9a9.34,9.34,0,0,0-7.06,3v-2.16h-7.18v1.82h4.61v14.69h-4.83v2h11.1v-2h-3.7v-7.61a7,7,0,0,1,7.06-7.35c3.55,0,4.35,2.39,4.35,6.69v8.27h-3.58v2H457v-2Z"/><path class="cls-1" d="M114.18,214.48a6.86,6.86,0,0,0,6.24-3.58v13h7.18V222.1H123V197.65c0-.38,0-.62,0-.62s-2.2-3-8.34-2.73c-6.85.29-9.62,4.58-9.62,10.26S108.63,214.48,114.18,214.48Zm.94-17.87c4.1,0,5,1.86,5.12,2.13v5c-.21,6.94-3.7,8.31-6.19,8.31-4.16,0-6.39-3.37-6.39-7.5C107.66,201.21,109,196.61,115.12,196.61Z"/><path class="cls-1" d="M57.29,246.47c-7.78,0-10.16,6.39-10.16,14.29S49.41,275,57.29,275.05c7.44,0,10.09-6.4,10.09-14.29S64.9,246.47,57.29,246.47Zm0,26.19c-5.85,0-7.23-5.23-7.23-11.9s1.61-11.9,7.16-11.9c5.79,0,7.24,5.22,7.24,11.9S63,272.66,57.29,272.66Z"/><polyline class="cls-1" points="83.53 247.72 80.96 247.72 80.84 247.72 75.22 251.09 75.22 253.82 80.84 250.44 80.84 272.1 75.22 272.1 75.22 274.26 80.84 274.26 83.53 274.26 88.66 274.26 88.66 272.1 83.53 272.1 83.53 247.72"/><path class="cls-1" d="M109.39,272H99.55c0-5.24,3.07-7.05,6.09-9.21,4.26-3,6.92-4.61,6.91-9.65,0-4.24-3.78-6.63-7.9-6.62-3.8,0-6.46,1.24-7.62,3.77l0,3.06v1.48h3v-4.12a5.46,5.46,0,0,1,4.52-2c2.87,0,5.13,1.42,5.28,4.12.21,3.86-2.88,5.62-5.16,7.1-4,2.6-8,5.69-7.9,12.05v2.31h15.7v-7.9h-3Z"/><rect class="cls-1" x="124.78" y="247.77" width="14" height="2.16"/><polygon class="cls-1" points="138.78 249.94 129.51 261.38 128.25 259.63 136.43 249.32 138.78 249.94"/><rect class="cls-1" x="124.78" y="249.94" width="2.44" height="4.54"/><path class="cls-1" d="M130.29,259.19l-.78,2.19c5-.45,7.44,1.71,7.39,5.62,0,3-1.52,5.66-5.37,5.71-3.37,0-4.84-3.4-5.76-5.36l-2.31,1.47c1.16,3.09,3.36,6.27,8,6.27,6,0,8.1-4.08,8.1-8.37C139.6,261.38,135.8,258.88,130.29,259.19Z"/><polygon class="cls-1" points="130.29 259.19 130.29 259.19 130.37 258.88 130.29 259.19"/><rect class="cls-1" x="166.29" y="247.72" width="13.44" height="2.16"/><polygon class="cls-1" points="168.73 260.21 166.29 259.17 166.29 249.88 168.73 249.88 168.73 260.21"/><path class="cls-1" d="M168.73,257.65v2.56c6.6-1.89,9.52,2.14,9.65,6.05.12,3.75-2.06,6.4-5.9,6.39s-4.92-3.3-5.94-5.24l-2.13,1.35c1.16,3.1,3.36,6.27,8,6.27,6,0,8.63-3.54,8.63-9C181.08,260.69,177.29,255.76,168.73,257.65Z"/><polygon class="cls-1" points="171.24 258.01 171.24 258.01 171.32 257.7 171.24 258.01"/><rect class="cls-1" x="177.29" y="249.88" width="2.44" height="4.54"/><polygon class="cls-1" points="156.19 272.1 156.19 265.74 160.19 265.74 160.19 263.33 156.19 263.33 156.19 256.51 153.5 259.33 153.5 263.33 147.25 263.33 156.68 247.7 156.39 247.72 153.62 247.72 153.5 247.72 143.94 263.3 143.97 263.33 143.94 263.33 143.94 265.74 153.5 265.74 153.5 272.1 149.01 272.1 149.01 274.26 153.5 274.26 156.19 274.26 160.19 274.26 160.19 272.1 156.19 272.1"/><rect class="cls-1" x="209.44" y="247.72" width="15.69" height="2.31"/><rect class="cls-1" x="209.44" y="250.03" width="2.44" height="4.54"/><polygon class="cls-1" points="222.73 250.03 212.9 274.26 215.63 274.26 225.14 250.95 222.73 250.03"/><polygon class="cls-1" points="225.14 250.95 222.7 250.95 222.73 250.03 225.14 250.03 225.14 250.95"/><path class="cls-1" d="M262.91,248.66c3.07,0,5,2.29,5,5.65,0,3-1.7,5.46-5,5.46-3.7,0-5.15-2.61-5.15-5.46,0-3.36,2.3-5.65,5.15-5.65m0-2.19a7.85,7.85,0,0,0,0,15.69c4.34,0,7.68-2.69,7.68-7.85s-3.34-7.84-7.68-7.84Z"/><polygon class="cls-1" points="268.21 255.32 260.32 274.26 263.06 274.26 270.09 257.5 268.21 255.32"/><path class="cls-1" d="M196.76,272.56c-3.07,0-5.56-2-5.56-5.32,0-3,1.91-6.59,5.22-6.59,4.23,0,5.47,2.74,5.47,5.58,0,3.68-1.83,6.33-5.13,6.33m-.58,2.53c5.28,0,8.15-2.76,8.15-8.41,0-4.91-2.43-8.42-7.91-8.42-4.34,0-7.91,3.82-7.91,9s3.34,7.85,7.67,7.85Z"/><polygon class="cls-1" points="190.89 266.23 198.78 247.29 196.14 247.29 189.01 263.84 190.89 266.23"/><path class="cls-1" d="M244.72,259.86a6.88,6.88,0,0,0,2.94-6.12c0-4.78-3.09-7.27-7.11-7.27a7.06,7.06,0,0,0-7,7.27,7.29,7.29,0,0,0,3.2,6.13,8.16,8.16,0,0,0-4.05,6.85c0,5.24,3.1,8.37,7.88,8.37,4.62,0,8-2.68,8-8.37A7.64,7.64,0,0,0,244.72,259.86Zm-4.12-11.2c2.85,0,4.38,1.87,4.38,5,0,2.55-1.32,4.94-4.38,4.94-3.42,0-4.69-2.69-4.69-4.94C235.91,250.53,238,248.66,240.6,248.66Zm-.07,24c-3.39,0-5.23-2.51-5.23-5.71,0-3.36,2.39-6,5.23-6,3.07,0,5.31,2.62,5.31,6C245.84,270.52,243.56,272.7,240.53,272.7Z"/><polyline class="cls-1" points="323.71 255.72 321.14 255.72 321.02 255.72 315.4 255.72 315.4 257.89 321.02 257.89 321.02 272.1 315.4 272.1 315.4 274.26 321.02 274.26 323.71 274.26 328.83 274.26 328.83 272.1 323.71 272.1"/><path class="cls-1" d="M344.75,272h-9.83c-.05-2.91,2.7-3.73,6.08-5.27,4.54-2.06,6.34-3.81,6.35-6.42,0-4.24-3.22-5.65-7.33-5.65-3.81,0-6.47,1.24-7.62,3.77l0,1.94v1.48h3v-3a5.45,5.45,0,0,1,4.51-2c2.87,0,4.81,1,4.72,3.36-.08,1.88-2,3.14-4.65,4.25-4.42,1.88-7.85,3-7.84,7.52v2.31h15.69v-6.21h-3Z"/><rect class="cls-1" x="355.3" y="254.94" width="14" height="2.16"/><polygon class="cls-1" points="369.3 257.1 360.03 268.54 358.77 266.79 366.95 256.48 369.3 257.1"/><rect class="cls-1" x="355.3" y="257.1" width="2.44" height="4.54"/><path class="cls-1" d="M360.81,266.36l-.78,2.18c5-.45,7.42,1.73,7.37,5.64,0,3-1.5,5.08-5.35,5.13-3.37,0-4.84-2.84-5.76-4.8l-2.11,1.34c1.16,3.1,3.16,5.84,7.84,5.84,6,0,8.11-4.08,8.11-8.37C370.13,268.54,366.32,266,360.81,266.36Z"/><polygon class="cls-1" points="360.81 266.36 360.81 266.36 360.89 266.04 360.81 266.36"/><rect class="cls-1" x="396.62" y="255.72" width="13.44" height="2.16"/><polygon class="cls-1" points="399.05 268.21 396.62 267.17 396.62 257.89 399.05 257.89 399.05 268.21"/><path class="cls-1" d="M399.05,265.65v2.56c6.6-1.88,9.53,2.15,9.66,6.05s-2.06,6.4-5.91,6.4-4.91-3.3-5.93-5.25l-2.14,1.36c1.16,3.09,3.37,6.27,8,6.27,6,0,8.64-3.54,8.64-9.05C411.41,268.69,407.62,263.77,399.05,265.65Z"/><polygon class="cls-1" points="401.56 266.02 401.56 266.02 401.65 265.7 401.56 266.02"/><rect class="cls-1" x="407.62" y="257.89" width="2.44" height="4.54"/><polyline class="cls-1" points="373.33 276.67 383.77 276.67 383.77 280.12 383.77 280.12 383.77 283.17 383.77 283.17 386.46 283.17 386.46 282.29 386.46 280.12 386.46 280.12 386.46 276.67 389.58 276.67 389.58 274.26 386.46 274.26 386.46 266.54 383.77 269.36 383.77 274.26 376.64 274.26 386.07 255.72 385.78 255.74 383.01 255.74 382.89 255.74 373.33 274.23"/><rect class="cls-1" x="438.16" y="255.72" width="15.69" height="2.31"/><rect class="cls-1" x="438.16" y="258.03" width="2.44" height="4.54"/><polygon class="cls-1" points="451.45 258.03 442.05 281.2 444.42 282.08 453.86 258.96 451.45 258.03"/><polygon class="cls-1" points="453.86 258.96 451.42 258.96 451.45 258.03 453.86 258.03 453.86 258.96"/><path class="cls-1" d="M485.54,257.13c3.07,0,5,2.29,5,5.66,0,3-1.7,5.46-5,5.46-3.7,0-5.15-2.62-5.15-5.46,0-3.37,2.3-5.66,5.15-5.66m0-2.19a7.85,7.85,0,0,0,0,15.7c4.34,0,7.68-2.69,7.68-7.85s-3.34-7.85-7.68-7.85Z"/><polygon class="cls-1" points="490.84 263.79 483.39 281.67 485.76 282.55 492.72 265.97 490.84 263.79"/><path class="cls-1" d="M425.81,272.56c-3.08,0-5.57-2-5.57-5.32,0-3,1.92-6.59,5.23-6.59,4.23,0,5.46,2.74,5.46,5.58,0,3.68-1.82,6.33-5.12,6.33m-.58,2.53c5.28,0,8.15-2.76,8.15-8.41,0-4.91-2.43-8.42-7.91-8.42-4.34,0-7.92,3.82-7.92,9s3.34,7.85,7.68,7.85Z"/><polygon class="cls-1" points="419.94 266.23 427.63 247.72 424.98 247.72 418.06 263.84 419.94 266.23"/><path class="cls-1" d="M470.65,259.74a6.9,6.9,0,0,0,2.94-6.12c0-4.78-3.1-7.28-7.11-7.28a7.07,7.07,0,0,0-7,7.28,7.29,7.29,0,0,0,3.2,6.13,8.15,8.15,0,0,0-4.06,6.85c0,5.24,3.11,8.36,7.88,8.36s8-2.67,8-8.36A7.65,7.65,0,0,0,470.65,259.74Zm-4.19-11.36c2.85,0,4.76,2,4.76,5.15,0,2.8-1.69,5.14-4.76,5.14-3.42,0-4.64-2.51-4.64-5.14C461.82,250.41,463.83,248.38,466.46,248.38Zm0,24.2c-3.39,0-5.43-2.5-5.43-5.7a5.79,5.79,0,0,1,5.43-6c3.07,0,5.3,2.62,5.3,6C471.76,270.4,469.49,272.58,466.46,272.58Z"/><path class="cls-1" d="M301.05,254.93c-5.18,0-9.18,4.07-9.18,10.17s4,10,9.18,10,9-3.61,9-10.05C310,259,306.22,254.93,301.05,254.93Zm0,17.74c-3.88,0-6.34-3.05-6.34-7.79,0-4.93,2.65-7.59,6.34-7.59,3.88,0,6.08,3,6.08,7.7S304.83,272.67,301.05,272.67Z"/><polygon class="cls-1" points="529.82 43.29 518.54 43.29 518.54 45.44 522.84 45.44 522.84 65.7 508.54 43.43 508.54 43.43 508.54 43.43 508.51 43.43 505.82 43.43 501.03 43.43 501.03 45.58 505.82 45.58 505.82 67.73 500.47 67.73 500.47 69.89 505.82 69.89 505.82 69.89 508.51 69.89 508.51 69.89 513.87 69.89 513.87 67.73 508.51 67.73 508.51 48.21 522.5 69.89 522.84 69.89 525.52 69.89 525.52 45.44 529.82 45.44 529.82 43.29"/><circle class="cls-1" cx="49.68" cy="329.97" r="2.34"/><circle class="cls-1" cx="70.99" cy="329.97" r="2.34"/><circle class="cls-1" cx="70.99" cy="315.34" r="2.34"/><path class="cls-1" d="M63.3,330a2.34,2.34,0,1,0-3,2.22l-1.51,3.05,1.76.88L63.06,331h0A2.24,2.24,0,0,0,63.3,330Z"/><path class="cls-1" d="M82.86,330a2.34,2.34,0,1,0-3,2.22l-1.51,3.05,1.76.88L82.62,331h0A2.24,2.24,0,0,0,82.86,330Z"/><circle class="cls-1" cx="80.52" cy="315.34" r="2.34"/><rect class="cls-1" x="149.33" y="320.14" width="17.03" height="2.17"/><rect class="cls-1" x="137.87" y="320.14" width="7.46" height="2.17"/><rect class="cls-1" x="169.36" y="320.14" width="34.07" height="2.17"/><path class="cls-1" d="M112.06,305.93a2.24,2.24,0,1,0-2.9,2.12L107.72,311l1.68.83,2.42-4.88h0A2.33,2.33,0,0,0,112.06,305.93Z"/><path class="cls-1" d="M117.57,305.93a2.23,2.23,0,1,0-2.89,2.12L113.24,311l1.68.83,2.42-4.88h0A2.19,2.19,0,0,0,117.57,305.93Z"/><path class="cls-1" d="M99.88,309.57a2.24,2.24,0,1,0,2.89-2.13l1.45-2.91-1.68-.83-2.43,4.88h0A2.19,2.19,0,0,0,99.88,309.57Z"/><path class="cls-1" d="M94.37,309.57a2.23,2.23,0,1,0,2.89-2.13l1.44-2.91L97,303.7l-2.42,4.88h0A2.32,2.32,0,0,0,94.37,309.57Z"/><path class="cls-1" d="M130.2,305.93a2.23,2.23,0,1,0-2.89,2.12L125.87,311l1.68.83,2.42-4.88h0A2.32,2.32,0,0,0,130.2,305.93Z"/><path class="cls-1" d="M221.39,324.79c.12-3.76.27-5.37,2.3-6.61,3.91-2.4,6-3.34,6-7.81,0-4.24-3.78-6.63-7.89-6.63-3.81,0-6.47,1.25-7.62,3.78l0,3.06v1.47h3v-4.12a5.48,5.48,0,0,1,4.51-2c2.87,0,5.22,1.42,5.28,4.13.07,3.2-2.08,4.07-4.37,5.54-3,1.91-3.9,3.73-3.82,9.17"/><circle class="cls-1" cx="220.02" cy="330.02" r="2.27"/><polygon class="cls-1" points="243.9 304.99 240.03 304.99 240.91 320.91 240.91 324.79 243.02 324.79 243.02 320.91 243.9 304.99"/><circle class="cls-1" cx="241.96" cy="330.02" r="2.27"/><polyline class="cls-1" points="291.3 334.03 293.54 334.03 298.65 334.03 298.65 332.32 293.54 332.32 293.54 303.68 298.65 303.68 298.65 301.96 293.54 301.96 291.42 301.96 291.3 301.96"/><polyline class="cls-1" points="310.14 334.03 307.9 334.03 302.79 334.03 302.79 332.32 307.9 332.32 307.9 303.68 302.79 303.68 302.79 301.96 307.9 301.96 310.02 301.96 310.14 301.96"/><path class="cls-1" d="M326,334.87c-.3-.14-7.16-5-7.16-17.59,0-11.68,8.21-16.15,8.21-16.15l.73,2.39-.36-1.2.38,1.19c-.23.08-6.59,3.66-6.46,13.77.14,10.31,5.52,15.23,5.75,15.34Z"/><path class="cls-1" d="M332.52,334.87c.29-.14,7.15-5,7.15-17.59,0-11.68-8.21-16.15-8.21-16.15l-.73,2.39.37-1.2-.38,1.19c.22.08,6.59,3.66,6.45,13.77-.14,10.31-5.52,15.23-5.75,15.34Z"/><path class="cls-1" d="M271.17,334.7c-5.49,0-5.49-4.93-5.49-8.9,0-2.43,0-4.94-1.13-6a3.06,3.06,0,0,0-2.34-.71l-1,0v-2.21h1c3.16,0,3.49-2.17,3.49-7.12,0-4.06,0-9.11,5.49-9.11v2c-3.16,0-3.49,2.17-3.49,7.11,0,3,0,6.54-2.21,8.19a3.64,3.64,0,0,1,.48.4c1.73,1.69,1.73,4.63,1.73,7.47,0,4.8.33,6.9,3.49,6.9Z"/><path class="cls-1" d="M274.05,334.7v-2c3.16,0,3.49-2.1,3.49-6.9,0-2.84,0-5.78,1.73-7.47a3.64,3.64,0,0,1,.48-.4c-2.21-1.65-2.21-5.19-2.21-8.19,0-4.94-.33-7.11-3.49-7.11v-2c5.49,0,5.49,5.05,5.49,9.11,0,4.95.33,7.12,3.49,7.12h1v2.21l-1,0a3,3,0,0,0-2.35.71c-1.12,1.1-1.12,3.61-1.12,6C279.54,329.77,279.54,334.7,274.05,334.7Z"/><path class="cls-1" d="M374.45,315l.15-2.09h-3.19l.93-8h-2.46l-.93,8h-3.8l.92-8h-2.46l-.92,8h-4.2l-.15,2.09h4.1l-.6,5.24h-3.69l-.15,2.09h3.6l-1.05,9.06H363l1.05-9.06h3.81l-1.05,9.06h2.46l1.05-9.06h3.78l.15-2.09h-3.69l.6-5.24Zm-6.34,5.24H364.3l.6-5.24h3.81Z"/><path class="cls-1" d="M370.82,43.29h-13.4v2.16H363l-.07,14c-.06,5.49.48,10.67-1.94,11.93s-5.11-1.83-5.11-1.83l-2.23,1.55c3.28,4.37,7.57,3.74,9.53,2.2,3.16-2.5,2.49-9.89,2.48-14,0-1.78,0-12.26,0-13.77h5.11"/><path class="cls-1" d="M428.58,308.41c-7.56,0-13.72,6.48-13.72,14.45s4.85,15.33,13.72,15.33l-1.07-2.05c-7-.58-10.65-6.8-10.65-13.28,0-6.86,5.26-12.45,11.72-12.45s11.89,4.2,11.72,12.06a13.24,13.24,0,0,1-1.73,6.53c-1.08,1.65-2.47,1.31-2.47-.51h0c0-1.56,0-4,0-4v-9h-2.31v2.37a6.18,6.18,0,0,0-5.61-3.22c-5,0-8.22,3.83-8.22,8.93s2.12,9.24,8.28,9.24a6.63,6.63,0,0,0,5.42-2.81l0,0a2.48,2.48,0,0,0,2.73,2.18c4.36,0,5.95-6.2,5.95-9.35C442.3,313.77,437,308.41,428.58,308.41Zm-.06,22.27c-5.1.13-6.22-4.12-6.22-7.13,0-3.72,2-6.76,5.75-6.76,2.24,0,5.38,1.24,5.57,7.48C433.62,326.62,432.64,330.58,428.52,330.68Z"/><path class="cls-1" d="M368.4,91.18h-5.56l-7.6,24.33h-3.87L347,100.38l-4.84,15.13h-3.62s-4.94-20.87-6.15-24.33h-5.71V89h7.64s-2.86,0-2.86,0v0h8.64v2.15h-4.92l5.15,21.71,5.31-16.53c.62,0,1.55,0,2.8,0l4.9,16.71L360,91.18h-5V89h11.59s-2.95.07-3,.14,3-.07,3-.14h1.79Z"/><path class="cls-1" d="M61.88,165.78h4.53v2H59.19v-1.6a5.31,5.31,0,0,1-2,1.81,5.7,5.7,0,0,1-2.52.61c-2.52,0-4.3-.5-5.32-1.5a5.25,5.25,0,0,1-1.53-3.92,4.36,4.36,0,0,1,2.08-3.68,17.83,17.83,0,0,1,5.31-2.42A8,8,0,0,0,58,155.73a2,2,0,0,0,.68-2,3,3,0,0,0-1.22-2.08,4.22,4.22,0,0,0-2.56-.64,5.44,5.44,0,0,0-2.59.61,5.36,5.36,0,0,0-1.49,1.23v3h-2v-1.06c0-.73-.05-1.82-.07-3.27a8.35,8.35,0,0,1,2.93-2.15,8,8,0,0,1,3.61-.82c2.66,0,4.26.73,5.21,2.18s1.43,3.7,1.43,6.79v8.31Zm-7.67.79a8.68,8.68,0,0,0,1.26-.1,3.6,3.6,0,0,0,1.16-.35,4.22,4.22,0,0,0,1.71-1.84,10.17,10.17,0,0,0,.88-4v-2.32a13,13,0,0,1-1.74.79c-.63.23-1.36.45-2.18.68a14.16,14.16,0,0,0-3.61,1.43,2.62,2.62,0,0,0-1.36,2.29,3.66,3.66,0,0,0,.78,2.35A3.83,3.83,0,0,0,54.21,166.57Z"/><path class="cls-1" d="M292.14,165.84v2H280.36v-2H285V151.12h-4.45v-1.81h6.92v16.53Zm-5.07-22a1.72,1.72,0,0,1-.71.48,2.13,2.13,0,0,1-.86.17,2.31,2.31,0,0,1-.86-.17,2,2,0,0,1-.71-.48,2.53,2.53,0,0,1-.69-1.57,1.88,1.88,0,0,1,.21-.86,1.94,1.94,0,0,1,.48-.75,2,2,0,0,1,.71-.48,2.52,2.52,0,0,1,.86-.17,2.31,2.31,0,0,1,.86.17,1.72,1.72,0,0,1,.71.48,1.94,1.94,0,0,1,.48.75,1.88,1.88,0,0,1,.21.86,2.53,2.53,0,0,1-.69,1.57Z"/><path class="cls-1" d="M311.82,149.37h-6.24v1.83h3.66l-.05,11.34c-.05,4.49.4,8.73-1.58,9.76s-4.18-1.5-4.18-1.5l-1.82,1.27c2.68,3.57,6.5,3.06,8.1,1.8,2.58-2,2-8.08,2-11.48,0-1.57.08-11.17.08-11.17"/><path class="cls-1" d="M311.56,143.86a1.82,1.82,0,0,1-.72.48,2.13,2.13,0,0,1-.86.17,2.31,2.31,0,0,1-.86-.17,2,2,0,0,1-.71-.48,2.53,2.53,0,0,1-.69-1.57,1.88,1.88,0,0,1,.21-.86,1.94,1.94,0,0,1,.48-.75,2,2,0,0,1,.71-.48A2.52,2.52,0,0,1,310,140a2.31,2.31,0,0,1,.86.17,1.82,1.82,0,0,1,.72.48,2.2,2.2,0,0,1,.48.75,2,2,0,0,1,.2.86,2.1,2.1,0,0,1-.2.85A2.27,2.27,0,0,1,311.56,143.86Z"/><path class="cls-1" d="M409.91,312.86H407.2v-3.64h-2.59v3h0v4.24h0v3.13c0,6.43-4.6,10.22-8.52,10.25a7,7,0,0,1-7.14-6.39c-.28-5.44,4.13-8.17,8.38-8.59v-2h-1c-4.55,0-6.22-1.32-6.27-3.73-.06-2.57,2.28-3.32,4.91-3.37a8.31,8.31,0,0,1,3.55.73v3.26h1.94V305h0a10.63,10.63,0,0,0-5.47-1.41c-4.57,0-7.34,1.66-7.41,5.79a5.12,5.12,0,0,0,3,5c-2.59,1.59-4.32,4.54-4.32,8.76s3.32,9,9.87,9c2.91,0,7.12-1.29,8.49-4.49v3.67h2.57v-.23h0v-5h0v-3.56a.5.5,0,0,0,0-.12h0v-7.62h2.71Z"/><path class="cls-1" d="M224.21,161.85c4.18-.06,6.6-2.57,6.54-6.44v-4.2h3.65v-2H228v1.32a5.93,5.93,0,0,0-5-2.07,6.4,6.4,0,0,0-6.78,6.77c0,2.34.47,3.92,3.17,5.94-2.26.26-2.89,1.15-2.81,2.77.11,3.29,4.11,3,7.8,3.47,3,.37,6.85.84,6.86,4.16,0,2.17-2.4,4.45-6.11,4.45a7.17,7.17,0,0,1-5.83-2.32h0v-3.26h-2.69v3.26h0c1.16,3,4.52,4.65,8.53,4.65,5.92,0,8.75-3.48,8.78-7.1,0-5.39-5.29-6.11-9.64-6.49-2.64-.24-4.7-.31-4.62-1.24C219.64,162,221.32,161.89,224.21,161.85Zm-5.28-6.45c0-2.29,1.23-4.56,4.1-4.56,3.44,0,5.05,2.17,5.05,4.61s-1.73,4.25-5,4.25A4.42,4.42,0,0,1,218.93,155.4Z"/><path class="cls-1" d="M196.59,145.41c0-1.62.85-3,2.32-3a3.85,3.85,0,0,1,2.31.8l1.17-2a5.58,5.58,0,0,0-3.67-1.16c-4.58,0-4.92,3.76-4.92,3.76v5.46h-4.48v1.9h4.48v14.74h-4.48v1.9h11.74v-1.9h-4.47V151.15h4.47v-1.9h-4.47Z"/></svg>